<svg xmlns="http://www.w3.org/2000/svg" xmlns:xlink="http://www.w3.org/1999/xlink" width="500"
    zoomAndPan="magnify" viewBox="0 0 375 374.999991" height="500"
    preserveAspectRatio="xMidYMid meet" version="1.0">
    <defs>
        <g />
        <clipPath id="e6562f9288">
            <path
                d="M 171 158.105469 L 204.535156 158.105469 L 204.535156 221.457031 L 171 221.457031 Z M 171 158.105469 "
                clip-rule="nonzero" />
        </clipPath>
        <clipPath id="440dee809f">
            <path
                d="M 161.164062 165.335938 L 214.078125 165.335938 L 214.078125 214.390625 L 161.164062 214.390625 Z M 161.164062 165.335938 "
                clip-rule="nonzero" />
        </clipPath>
    </defs>
    <rect x="-37.5" width="450" fill="#ffffff" y="-37.499999" height="449.999989" fill-opacity="1" />
    <rect x="-37.5" width="450" fill="#000000" y="-37.499999" height="449.999989" fill-opacity="1" />
    <path stroke-linecap="round"
        transform="matrix(0.782088, 0, 0, 0.782088, 218.522628, 211.605337)" fill="none"
        stroke-linejoin="miter" d="M 0.999964 0.999098 L 125.191817 0.999098 " stroke="#d9d9d9"
        stroke-width="2" stroke-opacity="1" stroke-miterlimit="4" />
    <path stroke-linecap="round"
        transform="matrix(0.782088, 0, 0, 0.782088, 218.522628, 165.052504)" fill="none"
        stroke-linejoin="miter" d="M 0.999964 1.001721 L 125.191817 1.001721 " stroke="#d9d9d9"
        stroke-width="2" stroke-opacity="1" stroke-miterlimit="4" />
    <g clip-path="url(#e6562f9288)">
        <path fill="#ffffff"
            d="M 201.5 189.832031 C 201.5 181.636719 199.855469 174.246094 197.191406 168.921875 C 194.667969 163.875 191.277344 160.75 187.621094 160.75 C 183.960938 160.75 180.574219 163.875 178.046875 168.921875 C 175.386719 174.246094 173.742188 181.636719 173.742188 189.832031 C 173.742188 198.027344 175.386719 205.417969 178.046875 210.738281 C 180.574219 215.789062 183.960938 218.910156 187.621094 218.910156 C 191.277344 218.910156 194.667969 215.789062 197.191406 210.738281 C 199.855469 205.417969 201.5 198.027344 201.5 189.832031 Z M 199.546875 167.742188 C 202.386719 173.425781 204.144531 181.238281 204.144531 189.832031 C 204.144531 198.425781 202.386719 206.238281 199.546875 211.917969 C 196.570312 217.871094 192.359375 221.554688 187.621094 221.554688 C 182.882812 221.554688 178.671875 217.871094 175.695312 211.917969 C 172.855469 206.238281 171.097656 198.425781 171.097656 189.832031 C 171.097656 181.238281 172.855469 173.425781 175.695312 167.742188 C 178.671875 161.789062 182.882812 158.105469 187.621094 158.105469 C 192.359375 158.105469 196.570312 161.789062 199.546875 167.742188 "
            fill-opacity="1" fill-rule="nonzero" />
    </g>
    <g clip-path="url(#440dee809f)">
        <path fill="#ffffff"
            d="M 209.726562 183.515625 C 211.925781 178.3125 212.097656 173.703125 209.722656 170.925781 C 207.347656 168.148438 202.769531 167.601562 197.285156 168.964844 C 184.8125 172.066406 170.507812 184.296875 165.503906 196.136719 C 163.304688 201.335938 163.132812 205.945312 165.507812 208.722656 C 167.882812 211.5 172.460938 212.046875 177.945312 210.683594 C 190.414062 207.582031 204.726562 195.351562 209.726562 183.515625 Z M 212.152344 184.539062 C 206.820312 197.15625 191.867188 209.9375 178.574219 213.246094 C 172.117188 214.847656 166.585938 214.042969 163.503906 210.4375 C 160.425781 206.835938 160.488281 201.242188 163.078125 195.113281 C 168.410156 182.492188 183.363281 169.710938 196.65625 166.40625 C 203.113281 164.800781 208.644531 165.609375 211.726562 169.210938 C 214.804688 172.816406 214.742188 178.40625 212.152344 184.539062 "
            fill-opacity="1" fill-rule="nonzero" />
        <path fill="#ffffff"
            d="M 200.042969 178.753906 C 205.742188 184.003906 209.9375 189.835938 212.183594 195.179688 C 214.757812 201.316406 214.808594 206.90625 211.71875 210.507812 C 208.628906 214.105469 203.089844 214.902344 196.640625 213.285156 C 189.429688 211.472656 182.328125 207.074219 176.746094 202.253906 C 170.289062 196.671875 165.558594 190.304688 163.117188 184.5 C 160.542969 178.367188 160.496094 172.773438 163.582031 169.175781 C 166.671875 165.578125 172.210938 164.78125 178.664062 166.402344 C 184.566406 167.882812 191.316406 171.402344 197.621094 176.636719 Z M 178.023438 168.960938 C 172.542969 167.585938 167.964844 168.121094 165.585938 170.890625 C 163.207031 173.664062 163.367188 178.269531 165.558594 183.480469 C 168.378906 190.199219 173.824219 196.425781 179.417969 201.058594 C 185.394531 206.011719 191.75 209.335938 197.277344 210.722656 C 202.757812 212.097656 207.335938 211.5625 209.714844 208.792969 C 212.097656 206.019531 211.933594 201.410156 209.746094 196.203125 C 207.472656 190.792969 203.050781 184.832031 196.992188 179.566406 C 191.667969 174.949219 184.917969 170.691406 178.023438 168.960938 "
            fill-opacity="1" fill-rule="nonzero" />
    </g>
    <path fill="#ffb300"
        d="M 182.332031 185.597656 C 182.910156 185.160156 183.03125 184.335938 182.59375 183.753906 C 182.15625 183.171875 181.332031 183.054688 180.75 183.492188 L 175.460938 187.457031 C 174.710938 188.019531 174.773438 189.152344 175.558594 189.636719 L 180.75 193.527344 C 181.332031 193.964844 182.15625 193.847656 182.59375 193.265625 C 183.03125 192.683594 182.910156 191.859375 182.332031 191.421875 L 178.445312 188.507812 L 182.332031 185.597656 "
        fill-opacity="1" fill-rule="nonzero" />
    <path fill="#ffb300"
        d="M 192.648438 191.421875 C 192.066406 191.859375 191.949219 192.683594 192.382812 193.265625 C 192.820312 193.847656 193.644531 193.964844 194.226562 193.527344 L 199.511719 189.5625 C 200.257812 189.003906 200.210938 187.871094 199.417969 187.382812 L 194.226562 183.492188 C 193.644531 183.054688 192.820312 183.171875 192.382812 183.753906 C 191.949219 184.335938 192.066406 185.160156 192.648438 185.597656 L 196.53125 188.507812 L 192.648438 191.421875 "
        fill-opacity="1" fill-rule="nonzero" />
    <path fill="#ffb300"
        d="M 191.996094 182.433594 C 192.289062 181.769531 191.988281 180.988281 191.324219 180.695312 C 190.660156 180.402344 189.882812 180.703125 189.589844 181.367188 L 184.304688 193.265625 C 184.007812 193.929688 184.308594 194.707031 184.972656 195 C 185.636719 195.292969 186.414062 194.992188 186.710938 194.328125 L 191.996094 182.433594 "
        fill-opacity="1" fill-rule="nonzero" />
    <g fill="#d9d9d9" fill-opacity="1">
        <g transform="translate(221.997075, 199.427882)">
            <g>
                <path
                    d="M 18.5 -1.546875 C 18.5 -0.609375 18.632812 -0.0703125 18.90625 0.0625 C 19.0625 0.132812 19.273438 0.171875 19.546875 0.171875 L 19.546875 -6.21875 L 18.734375 -6.21875 C 17.585938 -2.5 15.296875 -0.628906 11.859375 -0.609375 C 8.929688 -0.609375 6.9375 -2.082031 5.875 -5.03125 C 5.351562 -6.46875 5.09375 -8.164062 5.09375 -10.125 C 5.09375 -14.332031 6.253906 -17.191406 8.578125 -18.703125 C 9.585938 -19.335938 10.710938 -19.65625 11.953125 -19.65625 C 14.765625 -19.65625 16.800781 -18.328125 18.0625 -15.671875 C 18.289062 -15.191406 18.484375 -14.707031 18.640625 -14.21875 L 19.453125 -14.21875 L 19.34375 -20.421875 C 18.851562 -20.421875 18.550781 -20.265625 18.4375 -19.953125 C 18.363281 -19.679688 18.328125 -19.242188 18.328125 -18.640625 C 17.679688 -19.296875 16.570312 -19.828125 15 -20.234375 C 13.957031 -20.472656 12.894531 -20.59375 11.8125 -20.59375 C 8.257812 -20.59375 5.535156 -19.273438 3.640625 -16.640625 C 2.335938 -14.773438 1.6875 -12.628906 1.6875 -10.203125 C 1.6875 -7.253906 2.597656 -4.773438 4.421875 -2.765625 C 6.359375 -0.691406 8.878906 0.34375 11.984375 0.34375 C 14.253906 0.3125 16.425781 -0.316406 18.5 -1.546875 Z M 18.5 -1.546875 " />
            </g>
        </g>
    </g>
    <g fill="#d9d9d9" fill-opacity="1">
        <g transform="translate(246.251469, 199.427882)">
            <g>
                <path
                    d="M 20.703125 0 C 20.703125 -0.5 20.519531 -0.78125 20.15625 -0.84375 C 20.039062 -0.863281 19.929688 -0.875 19.828125 -0.875 L 18.671875 -0.875 L 10.9375 -20.265625 L 9.6875 -20.265625 L 2.125 -0.875 L 0 -0.875 L 0 0 L 6.015625 0 C 6.015625 -0.5 5.832031 -0.78125 5.46875 -0.84375 C 5.351562 -0.863281 5.238281 -0.875 5.125 -0.875 L 3.484375 -0.875 L 6.015625 -7.421875 L 13.0625 -7.421875 L 15.59375 -0.875 L 13.40625 -0.875 L 13.40625 0 Z M 12.703125 -8.40625 L 6.375 -8.40625 L 9.515625 -16.578125 Z M 12.703125 -8.40625 " />
            </g>
        </g>
    </g>
    <g fill="#d9d9d9" fill-opacity="1">
        <g transform="translate(270.134386, 199.427882)">
            <g>
                <path
                    d="M 16.40625 -5.296875 C 16.40625 -7.304688 15.328125 -8.914062 13.171875 -10.125 C 12.742188 -10.351562 11.425781 -10.953125 9.21875 -11.921875 C 7.21875 -12.773438 5.957031 -13.648438 5.4375 -14.546875 C 5.164062 -15.046875 5.03125 -15.578125 5.03125 -16.140625 C 5.03125 -17.648438 5.757812 -18.695312 7.21875 -19.28125 C 7.851562 -19.53125 8.550781 -19.65625 9.3125 -19.65625 C 11.207031 -19.65625 12.648438 -19.015625 13.640625 -17.734375 C 14.296875 -16.847656 14.613281 -15.773438 14.59375 -14.515625 L 15.59375 -14.515625 L 15.59375 -20.421875 C 15.0625 -20.421875 14.75 -20.253906 14.65625 -19.921875 C 14.613281 -19.765625 14.59375 -19.550781 14.59375 -19.28125 C 12.988281 -20.15625 11.1875 -20.59375 9.1875 -20.59375 C 6.75 -20.59375 4.859375 -19.921875 3.515625 -18.578125 C 2.609375 -17.628906 2.15625 -16.523438 2.15625 -15.265625 C 2.15625 -13.367188 3.210938 -11.828125 5.328125 -10.640625 C 5.710938 -10.429688 7 -9.859375 9.1875 -8.921875 C 11.207031 -8.015625 12.488281 -7.097656 13.03125 -6.171875 C 13.320312 -5.660156 13.46875 -5.097656 13.46875 -4.484375 C 13.46875 -2.910156 12.703125 -1.773438 11.171875 -1.078125 C 10.453125 -0.765625 9.65625 -0.609375 8.78125 -0.609375 C 5.332031 -0.648438 3.421875 -2.753906 3.046875 -6.921875 L 2.03125 -6.921875 L 2.03125 0.0625 C 2.570312 0.0625 2.882812 -0.09375 2.96875 -0.40625 C 3.019531 -0.582031 3.046875 -0.910156 3.046875 -1.390625 C 4.773438 -0.234375 6.742188 0.34375 8.953125 0.34375 C 11.535156 0.34375 13.535156 -0.351562 14.953125 -1.75 C 15.921875 -2.738281 16.40625 -3.921875 16.40625 -5.296875 Z M 16.40625 -5.296875 " />
            </g>
        </g>
    </g>
    <g fill="#d9d9d9" fill-opacity="1">
        <g transform="translate(291.416957, 199.427882)">
            <g>
                <path
                    d="M 17.09375 -14.1875 L 16.921875 -20.265625 L 1.34375 -20.265625 L 1.34375 -19.375 L 4.046875 -19.375 L 4.046875 -0.875 L 1.34375 -0.875 L 1.34375 0 L 16.921875 0 L 17.09375 -6.078125 L 16.40625 -6.078125 L 15.9375 -4.484375 C 15.375 -2.578125 14.539062 -1.429688 13.4375 -1.046875 C 13.101562 -0.929688 12.742188 -0.875 12.359375 -0.875 L 6.953125 -0.875 L 6.953125 -9.96875 L 13.90625 -9.96875 L 13.90625 -10.9375 L 6.953125 -10.9375 L 6.953125 -19.375 L 12.359375 -19.375 C 13.984375 -19.375 15.144531 -18.285156 15.84375 -16.109375 C 15.882812 -15.972656 15.914062 -15.859375 15.9375 -15.765625 L 16.40625 -14.1875 Z M 17.09375 -14.1875 " />
            </g>
        </g>
    </g>
    <g fill="#d9d9d9" fill-opacity="1">
        <g transform="translate(59.205334, 200.201546)">
            <g>
                <path
                    d="M 18.5 -1.546875 C 18.5 -0.609375 18.632812 -0.0703125 18.90625 0.0625 C 19.0625 0.132812 19.273438 0.171875 19.546875 0.171875 L 19.546875 -6.21875 L 18.734375 -6.21875 C 17.585938 -2.5 15.296875 -0.628906 11.859375 -0.609375 C 8.929688 -0.609375 6.9375 -2.082031 5.875 -5.03125 C 5.351562 -6.46875 5.09375 -8.164062 5.09375 -10.125 C 5.09375 -14.332031 6.253906 -17.191406 8.578125 -18.703125 C 9.585938 -19.335938 10.710938 -19.65625 11.953125 -19.65625 C 14.765625 -19.65625 16.800781 -18.328125 18.0625 -15.671875 C 18.289062 -15.191406 18.484375 -14.707031 18.640625 -14.21875 L 19.453125 -14.21875 L 19.34375 -20.421875 C 18.851562 -20.421875 18.550781 -20.265625 18.4375 -19.953125 C 18.363281 -19.679688 18.328125 -19.242188 18.328125 -18.640625 C 17.679688 -19.296875 16.570312 -19.828125 15 -20.234375 C 13.957031 -20.472656 12.894531 -20.59375 11.8125 -20.59375 C 8.257812 -20.59375 5.535156 -19.273438 3.640625 -16.640625 C 2.335938 -14.773438 1.6875 -12.628906 1.6875 -10.203125 C 1.6875 -7.253906 2.597656 -4.773438 4.421875 -2.765625 C 6.359375 -0.691406 8.878906 0.34375 11.984375 0.34375 C 14.253906 0.3125 16.425781 -0.316406 18.5 -1.546875 Z M 18.5 -1.546875 " />
            </g>
        </g>
    </g>
    <g fill="#d9d9d9" fill-opacity="1">
        <g transform="translate(82.379469, 200.201546)">
            <g>
                <path
                    d="M 11.984375 -20.59375 C 9.285156 -20.59375 6.96875 -19.707031 5.03125 -17.9375 C 2.914062 -15.976562 1.859375 -13.421875 1.859375 -10.265625 C 1.859375 -6.617188 3.109375 -3.804688 5.609375 -1.828125 C 7.429688 -0.378906 9.523438 0.34375 11.890625 0.34375 C 14.546875 0.34375 16.828125 -0.554688 18.734375 -2.359375 C 20.878906 -4.367188 21.953125 -6.957031 21.953125 -10.125 C 21.953125 -13.84375 20.65625 -16.671875 18.0625 -18.609375 C 16.3125 -19.929688 14.285156 -20.59375 11.984375 -20.59375 Z M 11.984375 -0.609375 C 8.722656 -0.609375 6.628906 -2.351562 5.703125 -5.84375 C 5.390625 -7.082031 5.234375 -8.507812 5.234375 -10.125 C 5.234375 -15.488281 6.851562 -18.597656 10.09375 -19.453125 C 10.65625 -19.585938 11.253906 -19.65625 11.890625 -19.65625 C 16.316406 -19.601562 18.546875 -16.472656 18.578125 -10.265625 C 18.578125 -5.359375 17.210938 -2.304688 14.484375 -1.109375 C 13.722656 -0.773438 12.890625 -0.609375 11.984375 -0.609375 Z M 11.984375 -0.609375 " />
            </g>
        </g>
    </g>
    <g fill="#d9d9d9" fill-opacity="1">
        <g transform="translate(108.287961, 200.201546)">
            <g>
                <path
                    d="M 1.34375 -20.265625 L 1.34375 -19.375 L 4.046875 -19.375 L 4.046875 -0.875 L 1.34375 -0.875 L 1.34375 0 L 10.671875 0 C 13.710938 0 16.210938 -0.945312 18.171875 -2.84375 C 20.109375 -4.707031 21.078125 -7.132812 21.078125 -10.125 C 21.078125 -14 19.65625 -16.835938 16.8125 -18.640625 C 15.082031 -19.722656 13.066406 -20.265625 10.765625 -20.265625 Z M 10.671875 -19.375 C 14.222656 -19.375 16.441406 -17.753906 17.328125 -14.515625 C 17.660156 -13.328125 17.828125 -11.910156 17.828125 -10.265625 C 17.828125 -4.660156 15.914062 -1.566406 12.09375 -0.984375 C 11.664062 -0.910156 11.222656 -0.875 10.765625 -0.875 L 6.953125 -0.875 L 6.953125 -19.375 Z M 10.671875 -19.375 " />
            </g>
        </g>
    </g>
    <g fill="#d9d9d9" fill-opacity="1">
        <g transform="translate(133.318759, 200.201546)">
            <g>
                <path
                    d="M 17.09375 -14.1875 L 16.921875 -20.265625 L 1.34375 -20.265625 L 1.34375 -19.375 L 4.046875 -19.375 L 4.046875 -0.875 L 1.34375 -0.875 L 1.34375 0 L 16.921875 0 L 17.09375 -6.078125 L 16.40625 -6.078125 L 15.9375 -4.484375 C 15.375 -2.578125 14.539062 -1.429688 13.4375 -1.046875 C 13.101562 -0.929688 12.742188 -0.875 12.359375 -0.875 L 6.953125 -0.875 L 6.953125 -9.96875 L 13.90625 -9.96875 L 13.90625 -10.9375 L 6.953125 -10.9375 L 6.953125 -19.375 L 12.359375 -19.375 C 13.984375 -19.375 15.144531 -18.285156 15.84375 -16.109375 C 15.882812 -15.972656 15.914062 -15.859375 15.9375 -15.765625 L 16.40625 -14.1875 Z M 17.09375 -14.1875 " />
            </g>
        </g>
    </g>
    <g fill="#d9d9d9" fill-opacity="1">
        <g transform="translate(58.678688, 236.907312)">
            <g>
                <path
                    d="M 8.078125 0 C 8.078125 -0.28125 7.972656 -0.441406 7.765625 -0.484375 C 7.703125 -0.492188 7.640625 -0.5 7.578125 -0.5 L 6.28125 -0.5 L 6.28125 -10.984375 L 7.390625 -10.984375 C 8.421875 -10.984375 9.109375 -10.359375 9.453125 -9.109375 C 9.453125 -9.054688 9.457031 -9.019531 9.46875 -9 L 9.78125 -7.71875 L 10.3125 -7.71875 L 10.21875 -11.484375 L 0.765625 -11.484375 L 0.671875 -7.71875 L 1.203125 -7.71875 L 1.515625 -9 C 1.921875 -10.25 2.613281 -10.910156 3.59375 -10.984375 L 4.625 -10.984375 L 4.625 -0.5 L 2.8125 -0.5 L 2.8125 0 Z M 8.078125 0 " />
            </g>
        </g>
    </g>
    <g fill="#d9d9d9" fill-opacity="1">
        <g transform="translate(84.747148, 236.907312)">
            <g>
                <path
                    d="M 9.6875 -8.03125 L 9.59375 -11.484375 L 0.765625 -11.484375 L 0.765625 -10.984375 L 2.296875 -10.984375 L 2.296875 -0.5 L 0.765625 -0.5 L 0.765625 0 L 9.59375 0 L 9.6875 -3.4375 L 9.296875 -3.4375 L 9.03125 -2.546875 C 8.707031 -1.460938 8.234375 -0.8125 7.609375 -0.59375 C 7.421875 -0.53125 7.21875 -0.5 7 -0.5 L 3.9375 -0.5 L 3.9375 -5.640625 L 7.890625 -5.640625 L 7.890625 -6.203125 L 3.9375 -6.203125 L 3.9375 -10.984375 L 7 -10.984375 C 7.914062 -10.984375 8.570312 -10.363281 8.96875 -9.125 C 9 -9.050781 9.019531 -8.988281 9.03125 -8.9375 L 9.296875 -8.03125 Z M 9.6875 -8.03125 " />
            </g>
        </g>
    </g>
    <g fill="#d9d9d9" fill-opacity="1">
        <g transform="translate(110.471306, 236.907312)">
            <g>
                <path
                    d="M 10.484375 -0.875 C 10.484375 -0.34375 10.5625 -0.0390625 10.71875 0.03125 C 10.800781 0.0703125 10.921875 0.09375 11.078125 0.09375 L 11.078125 -3.515625 L 10.625 -3.515625 C 9.96875 -1.410156 8.664062 -0.351562 6.71875 -0.34375 C 5.0625 -0.34375 3.929688 -1.175781 3.328125 -2.84375 C 3.035156 -3.664062 2.890625 -4.628906 2.890625 -5.734375 C 2.890625 -8.117188 3.546875 -9.738281 4.859375 -10.59375 C 5.429688 -10.957031 6.070312 -11.140625 6.78125 -11.140625 C 8.375 -11.140625 9.523438 -10.382812 10.234375 -8.875 C 10.359375 -8.613281 10.46875 -8.34375 10.5625 -8.0625 L 11.015625 -8.0625 L 10.96875 -11.578125 C 10.6875 -11.578125 10.515625 -11.488281 10.453125 -11.3125 C 10.410156 -11.15625 10.390625 -10.90625 10.390625 -10.5625 C 10.015625 -10.925781 9.382812 -11.226562 8.5 -11.46875 C 7.90625 -11.601562 7.304688 -11.671875 6.703125 -11.671875 C 4.679688 -11.671875 3.132812 -10.925781 2.0625 -9.4375 C 1.320312 -8.375 0.953125 -7.15625 0.953125 -5.78125 C 0.953125 -4.101562 1.46875 -2.695312 2.5 -1.5625 C 3.601562 -0.394531 5.035156 0.1875 6.796875 0.1875 C 8.078125 0.175781 9.304688 -0.175781 10.484375 -0.875 Z M 10.484375 -0.875 " />
            </g>
        </g>
    </g>
    <g fill="#d9d9d9" fill-opacity="1">
        <g transform="translate(137.496161, 236.907312)">
            <g>
                <path
                    d="M 5.453125 0 C 5.453125 -0.28125 5.347656 -0.441406 5.140625 -0.484375 C 5.078125 -0.492188 5.015625 -0.5 4.953125 -0.5 L 3.9375 -0.5 L 3.9375 -5.640625 L 9.8125 -5.640625 L 9.8125 -0.5 L 8.28125 -0.5 L 8.28125 0 L 12.96875 0 C 12.96875 -0.28125 12.867188 -0.441406 12.671875 -0.484375 C 12.609375 -0.492188 12.539062 -0.5 12.46875 -0.5 L 11.46875 -0.5 L 11.46875 -10.984375 L 12.96875 -10.984375 L 12.96875 -11.484375 L 8.28125 -11.484375 L 8.28125 -10.984375 L 9.8125 -10.984375 L 9.8125 -6.203125 L 3.9375 -6.203125 L 3.9375 -10.984375 L 5.453125 -10.984375 L 5.453125 -11.484375 L 0.765625 -11.484375 L 0.765625 -10.984375 L 2.296875 -10.984375 L 2.296875 -0.5 L 0.765625 -0.5 L 0.765625 0 Z M 5.453125 0 " />
            </g>
        </g>
    </g>
    <g fill="#d9d9d9" fill-opacity="1">
        <g transform="translate(166.319047, 236.907312)">
            <g>
                <path
                    d="M 8.6875 -10.984375 L 10.3125 -10.984375 L 10.3125 -2.40625 L 3.046875 -11.484375 L 0.375 -11.484375 L 0.375 -10.984375 L 1.90625 -10.984375 L 1.90625 -0.5 L 0.375 -0.5 L 0.375 0 L 4.3125 0 C 4.3125 -0.28125 4.207031 -0.441406 4 -0.484375 C 3.9375 -0.492188 3.875 -0.5 3.8125 -0.5 L 2.671875 -0.5 L 2.671875 -9.359375 L 10.203125 0.09375 L 11.078125 -0.09375 L 11.078125 -10.984375 L 12.609375 -10.984375 L 12.609375 -11.484375 L 8.6875 -11.484375 Z M 8.6875 -10.984375 " />
            </g>
        </g>
    </g>
    <g fill="#d9d9d9" fill-opacity="1">
        <g transform="translate(194.204663, 236.907312)">
            <g>
                <path
                    d="M 6.796875 -11.671875 C 5.265625 -11.671875 3.945312 -11.164062 2.84375 -10.15625 C 1.644531 -9.050781 1.046875 -7.601562 1.046875 -5.8125 C 1.046875 -3.75 1.753906 -2.15625 3.171875 -1.03125 C 4.203125 -0.21875 5.390625 0.1875 6.734375 0.1875 C 8.242188 0.1875 9.539062 -0.320312 10.625 -1.34375 C 11.832031 -2.476562 12.4375 -3.941406 12.4375 -5.734375 C 12.4375 -7.835938 11.703125 -9.441406 10.234375 -10.546875 C 9.242188 -11.296875 8.097656 -11.671875 6.796875 -11.671875 Z M 6.796875 -0.34375 C 4.941406 -0.34375 3.753906 -1.332031 3.234375 -3.3125 C 3.054688 -4.007812 2.96875 -4.816406 2.96875 -5.734375 C 2.96875 -8.773438 3.882812 -10.535156 5.71875 -11.015625 C 6.039062 -11.097656 6.378906 -11.140625 6.734375 -11.140625 C 9.242188 -11.109375 10.507812 -9.332031 10.53125 -5.8125 C 10.53125 -3.03125 9.753906 -1.300781 8.203125 -0.625 C 7.773438 -0.4375 7.304688 -0.34375 6.796875 -0.34375 Z M 6.796875 -0.34375 " />
            </g>
        </g>
    </g>
    <g fill="#d9d9d9" fill-opacity="1">
        <g transform="translate(222.778878, 236.907312)">
            <g>
                <path
                    d="M 9.140625 0 L 9.234375 -3.828125 L 8.859375 -3.828125 L 8.53125 -2.546875 C 8.226562 -1.367188 7.71875 -0.695312 7 -0.53125 C 6.851562 -0.507812 6.707031 -0.5 6.5625 -0.5 L 3.9375 -0.5 L 3.9375 -10.984375 L 5.546875 -10.984375 L 5.546875 -11.484375 L 0.765625 -11.484375 L 0.765625 -10.984375 L 2.296875 -10.984375 L 2.296875 -0.5 L 0.765625 -0.5 L 0.765625 0 Z M 9.140625 0 " />
            </g>
        </g>
    </g>
    <g fill="#d9d9d9" fill-opacity="1">
        <g transform="translate(247.297971, 236.907312)">
            <g>
                <path
                    d="M 6.796875 -11.671875 C 5.265625 -11.671875 3.945312 -11.164062 2.84375 -10.15625 C 1.644531 -9.050781 1.046875 -7.601562 1.046875 -5.8125 C 1.046875 -3.75 1.753906 -2.15625 3.171875 -1.03125 C 4.203125 -0.21875 5.390625 0.1875 6.734375 0.1875 C 8.242188 0.1875 9.539062 -0.320312 10.625 -1.34375 C 11.832031 -2.476562 12.4375 -3.941406 12.4375 -5.734375 C 12.4375 -7.835938 11.703125 -9.441406 10.234375 -10.546875 C 9.242188 -11.296875 8.097656 -11.671875 6.796875 -11.671875 Z M 6.796875 -0.34375 C 4.941406 -0.34375 3.753906 -1.332031 3.234375 -3.3125 C 3.054688 -4.007812 2.96875 -4.816406 2.96875 -5.734375 C 2.96875 -8.773438 3.882812 -10.535156 5.71875 -11.015625 C 6.039062 -11.097656 6.378906 -11.140625 6.734375 -11.140625 C 9.242188 -11.109375 10.507812 -9.332031 10.53125 -5.8125 C 10.53125 -3.03125 9.753906 -1.300781 8.203125 -0.625 C 7.773438 -0.4375 7.304688 -0.34375 6.796875 -0.34375 Z M 6.796875 -0.34375 " />
            </g>
        </g>
    </g>
    <g fill="#d9d9d9" fill-opacity="1">
        <g transform="translate(275.872186, 236.907312)">
            <g>
                <path
                    d="M 7.9375 -5.171875 L 7.9375 -4.671875 L 9.65625 -4.671875 L 9.65625 -1.6875 C 9.019531 -0.914062 8.164062 -0.488281 7.09375 -0.40625 C 7 -0.382812 6.898438 -0.375 6.796875 -0.375 C 4.253906 -0.40625 2.976562 -2.191406 2.96875 -5.734375 C 2.96875 -8.773438 3.882812 -10.535156 5.71875 -11.015625 C 6.039062 -11.097656 6.378906 -11.140625 6.734375 -11.140625 C 8.046875 -11.140625 9 -10.773438 9.59375 -10.046875 C 9.96875 -9.546875 10.3125 -8.769531 10.625 -7.71875 L 11.109375 -7.71875 L 11.015625 -11.421875 L 9.359375 -11.078125 C 8.554688 -11.472656 7.703125 -11.671875 6.796875 -11.671875 C 5.265625 -11.671875 3.945312 -11.164062 2.84375 -10.15625 C 1.644531 -9.050781 1.046875 -7.601562 1.046875 -5.8125 C 1.046875 -3.769531 1.773438 -2.175781 3.234375 -1.03125 C 4.296875 -0.21875 5.484375 0.1875 6.796875 0.1875 C 7.753906 0.1875 8.617188 -0.0195312 9.390625 -0.4375 C 9.492188 -0.488281 9.578125 -0.539062 9.640625 -0.59375 L 11.265625 0 L 11.265625 -4.671875 L 12.703125 -4.671875 L 12.703125 -5.171875 Z M 7.9375 -5.171875 " />
            </g>
        </g>
    </g>
    <g fill="#d9d9d9" fill-opacity="1">
        <g transform="translate(304.235995, 236.907312)">
            <g>
                <path
                    d="M 7.71875 0 C 7.71875 -0.28125 7.613281 -0.441406 7.40625 -0.484375 C 7.34375 -0.492188 7.28125 -0.5 7.21875 -0.5 L 6.1875 -0.5 L 6.1875 -4.765625 L 9.0625 -10.453125 C 9.363281 -10.796875 9.710938 -10.972656 10.109375 -10.984375 C 10.390625 -10.984375 10.546875 -11.085938 10.578125 -11.296875 C 10.585938 -11.359375 10.59375 -11.421875 10.59375 -11.484375 L 7.1875 -11.484375 L 7.1875 -10.984375 L 8.71875 -10.984375 L 5.8125 -5.421875 L 2.78125 -10.984375 L 4.234375 -10.984375 L 4.234375 -11.484375 L -0.09375 -11.484375 L -0.09375 -10.984375 L 0.953125 -10.984375 L 4.546875 -4.578125 L 4.546875 -0.5 L 3.015625 -0.5 L 3.015625 0 Z M 7.71875 0 " />
            </g>
        </g>
    </g>
    <path stroke-linecap="round" transform="matrix(0.782088, 0, 0, 0.782088, 56.31711, 211.605337)"
        fill="none" stroke-linejoin="miter" d="M 0.99803 0.999098 L 125.189882 0.999098 "
        stroke="#d9d9d9" stroke-width="2" stroke-opacity="1" stroke-miterlimit="4" />
    <path stroke-linecap="round" transform="matrix(0.782088, 0, 0, 0.782088, 56.31711, 165.052504)"
        fill="none" stroke-linejoin="miter" d="M 0.99803 1.001721 L 125.189882 1.001721 "
        stroke="#d9d9d9" stroke-width="2" stroke-opacity="1" stroke-miterlimit="4" />
</svg>